<svg width="448" height="416" viewBox="0 0 448 416" fill="none" xmlns="http://www.w3.org/2000/svg"><g clip-path="url(#clip0)"><path d="M330.975 318c59.541 0 107.808-8.3 107.808-18.538 0-10.239-48.267-18.539-107.808-18.539-59.54 0-107.807 8.3-107.807 18.539 0 10.238 48.267 18.538 107.807 18.538z" fill="#2B2638"/><path d="M296.358 287.469v8.995c0 7.745 15.48 14.091 34.617 14.091 19.137 0 34.617-6.246 34.617-14.091v-8.995h-69.234zM327.568 42.423c-48.192 1.85-85.865 40.925-85.765 89.044 0 22.586 8.417 43.273 22.393 58.913 8.817 9.994 16.081 21.137 21.392 33.179h90.574c5.11-11.742 12.173-22.585 20.89-32.179 14.428-15.84 23.245-36.777 23.245-59.913 0-50.368-41.931-90.993-92.729-89.044z" fill="#CFBBF9"/><path d="M296.358 287.469v8.995c0 7.745 15.48 14.091 34.617 14.091 19.137 0 34.617-6.246 34.617-14.091v-8.995h-69.234z" fill="#4F448E"/><path d="M356.424 291.267h-50.848c-11.572 0-20.99-9.394-20.99-20.937v-46.771h92.929v46.771c-.101 11.543-9.519 20.937-21.091 20.937z" fill="#5115AA"/><path d="M259.488 146.558l11.472 6.845c5.21 3.149 11.973 1.45 15.129-3.697l29.056-47.67c4.108-6.746 0-15.44-7.765-16.64l-16.883-2.548a11.098 11.098 0 00-11.371 5.596l-23.746 43.373c-2.856 5.147-1.002 11.693 4.108 14.741zM416.841 131.367c0 20.038-7.064 39.426-19.839 54.816h-.701c-2.956 0-5.961-1.249-7.965-3.898l-.401-.499a10.25 10.25 0 00-6.763-3.898l-.501-.1c-5.01-.599-8.817-4.797-8.817-9.894v-28.182c0-4.097 2.455-7.745 6.262-9.194l27.954-11.043c3.557-1.349 7.364-.6 10.119 1.649.451 3.298.652 6.746.652 10.243zM351.315 115.527l-15.48-8.794c-3.156-1.749-4.409-5.597-3.056-8.895l6.663-15.94c1.553-3.797-.401-8.244-4.309-9.493l-8.165-2.749c-4.108-1.349-6.062-6.046-4.108-9.994l1.753-3.597c1.102-2.249 3.357-3.698 5.912-3.898 7.865-.6 25.699-.1 47.19 13.292 8.617 5.896 17.183 17.439 22.293 25.034 2.555 3.798.902 8.994-3.456 10.643l-38.925 14.991c-2.205.55-4.459.5-6.312-.6z" fill="#BDA6A1"/><path d="M367.596 73.754l-.301-.1a6.483 6.483 0 00-5.11 0l-.801.3c-2.155.899-3.708 2.848-4.008 5.196-.1.9-.1 1.75.1 2.549.301 1.249 1.102 2.548 2.054 3.447.701.6 1.453 1 2.355 1.25l.4.1c.401.1.802.1 1.203 0-.301.8-.501 1.549-.501 2.348l-.802 61.362-.1 4.497-.401 27.782v1.449c0 1.1.902 1.949 1.954 1.949h.601c.802-.2 1.353-.999 1.353-1.849v-2.548l.4-27.983.902-64.709c0-.7.301-1.449.802-1.949l1.853-1.748c1.253-1.25 2.054-2.949 2.054-4.797v-.6c.1-2.549-1.553-4.897-4.007-5.946zm.2 6.645c0 .8-.301 1.45-.902 1.95l-1.853 1.748-.201.2c-.1-.7-.601-1.35-1.352-1.549l-.401-.1c-1.253-.4-2.054-1.649-1.854-2.948.1-1 .802-1.749 1.653-2.149l.802-.3c.301-.1.701-.2 1.002-.2.401 0 .701.1 1.102.2l.301.1c1.002.4 1.653 1.35 1.653 2.549v.5h.05zM251.923 128.419c0-.2-.1-.4-.1-.599 0-.5.1-1 .4-1.449l17.484-27.283c-.401.5-1.002.8-1.553.8-.301 0-.701-.1-1.002-.3l-1.853-1-16.482 25.634c-.501.799-.902 1.749-1.002 2.748v.4c.301 0 .701 0 1.002.2l.2.1 3.908 2.448c-.401-.3-.802-.899-1.002-1.699zm51.699-24.734c-.2-.6-.4-1.199-.801-1.749a6.691 6.691 0 00-2.555-2.449l-11.071-5.946-3.457-1.849-6.362-3.447c-.902-.5-1.854-.8-2.856-.8-1.352-.1-2.655.3-3.807 1-.802.5-1.553 1.199-2.054 2.048l-3.156 4.897-2.154 3.348-16.482 25.634c-.501.799-.902 1.749-1.002 2.748v.4c-.1.599 0 1.249.1 1.949.201.699.401 1.249.702 1.848.501 1 1.252 1.749 2.254 2.349l6.462 3.997 3.357 2.049 10.32 6.246c.901.6 1.853.9 2.855.9h.501c1.202 0 2.355-.3 3.357-.9.2-.1.3-.2.4-.3.702-.499 1.353-1.099 1.854-1.848l16.882-26.034 2.155-3.348 3.606-5.596c.702-1 1.002-2.149 1.103-3.348.05-.65-.051-1.2-.151-1.799zm-4.108 3.048l-4.608 7.145c0 .1-.101.2-.201.2l-17.834 27.583c-.802 1.249-2.455 1.549-3.707.899l-19.939-12.242c-.601-.4-1.102-.999-1.202-1.649 0-.2-.1-.4-.1-.6 0-.499.1-.999.401-1.449l17.483-27.282c.1-.1.1-.2.201-.2l4.007-6.346a2.646 2.646 0 012.255-1.25c.4 0 .901.1 1.252.3l20.89 11.243c.702.4 1.203 1 1.353 1.749.25.5.15 1.299-.251 1.899z" fill="#FDDCD2"/><path d="M364.039 155.552c-.301 0-.702-.1-1.002-.3l-67.68-38.475c-1.002-.5-1.253-1.749-.702-2.649.501-.999 1.754-1.249 2.655-.699l67.681 38.475c1.002.5 1.252 1.749.701 2.649-.251.599-.952.999-1.653.999zM269.957 98.888c0 .1-.1.2-.2.2-.401.5-1.002.8-1.553.8-.301 0-.701-.1-1.002-.3l-1.853-1-10.972-6.046a56.442 56.442 0 011.854-3.448l11.272 6.246 1.553.9c1.002.5 1.402 1.648.901 2.648zM275.368 89.694c-.2.1-.501.1-.701.1-.802 0-1.553-.5-1.854-1.25l-.1-.2-5.611-14.49c1.002-1.1 1.954-2.15 3.056-3.148l6.262 16.34c0 .1.1.2.1.3.301.998-.25 1.948-1.152 2.348zM345.703 200.174h-.2l-65.426-5.197c-3.456-.299-6.061-3.148-6.061-6.645v-41.774c0-1.099.901-1.949 1.953-1.949s1.954.899 1.954 1.949v41.774c0 1.349 1.102 2.648 2.555 2.748l65.426 5.197c1.102.1 1.853 1.099 1.753 2.148 0 .95-.851 1.749-1.954 1.749zM303.923 105.534c-.802 0-1.553-.5-1.854-1.25-.401-.999.1-2.148 1.203-2.548l54.805-20.287c1.002-.4 2.154.1 2.555 1.199.401 1-.1 2.149-1.202 2.548l-54.906 20.238c-.2 0-.401.1-.601.1z" fill="#FDDCD2"/><path d="M368.497 219.762c-.2.2-.501.3-.701.4h6.061c1.203-2.449 2.355-4.897 3.607-7.246l-8.967 6.846zm17.634-20.487l-4.409-9.594c-.701-1.349-1.753-2.549-3.256-3.248l-9.318-4.397a6.857 6.857 0 00-3.456-.6c-.401 0-.802.1-1.203.2l-2.755.799-8.917 2.549-7.064 2.348c-.401-.4-.801-.699-1.202-.999l-66.328-40.825-1.202-.699-.2-.1-3.808-2.349-19.938-12.242-3.908-2.448-.2-.1-1.002-.6-2.555-1.549c-.1.999-.1 1.949-.1 2.948v1.549l2.655 1.649 3.256 1.949 6.463 3.998 3.356 2.048 10.32 6.246 2.856 1.749 3.907 2.449 64.624 39.875c.802.499 1.253 1.349 1.253 2.348v12.992c0 1.549.501 3.048 1.553 4.197l8.817 10.644h11.472l-6.563-1.25c-.601-.1-1.202-.499-1.553-.999l-9.117-10.943a2.744 2.744 0 01-.601-1.749v-13.092c0-.4 0-.799-.101-1.199l6.363-2.049 10.119-2.848h.2l1.253-.4c.601-.2 1.252-.1 1.853.2l9.318 4.397c.601.3 1.102.8 1.253 1.25l4.909 10.493c.201.5.301 1.099.201 1.649.701-1.499 1.703-2.848 2.755-4.247z" fill="#FDDCD2"/><path d="M243.657 132.567v-1.1-1.549-2.548l3.056-1.099c.3-.1.601-.2 1.002-.2h.2c.501 0 1.002.1 1.453.399l.401.2c.601.4 1.002 1 1.252 1.649.601 1.749-.2 3.598-1.954 4.298l-.1.1-.902.299-4.608 1.649.2-2.098z" fill="#DF947B"/><path d="M248.116 127.37c.3 0 .601.1.801.2l.201.1c.3.2.601.599.701.999.401.999-.1 2.049-1.102 2.449h-.1l-.902.299-2.655 1V131.217v-1.449-1.549l2.154-.799c.2-.1.401-.1.601-.1.2.05.2.05.301.05zm0-2.948h-.401c-.501 0-1.002.1-1.353.3l-2.154.799-1.853.7-.101 1.948v4.498l.101 4.097 3.807-1.449 2.655-.999.902-.3.2-.1.1-.1c2.355-1.099 3.557-3.698 2.655-6.146-.4-1-1.001-1.749-1.753-2.349l-.1-.1-.1-.1-.201-.1-.1-.1-.1-.099c-.752-.2-1.453-.4-2.204-.4z" fill="#fff"/><path d="M248.667 160.349a59.042 59.042 0 01-1.654-5.297l-.2-.599 9.418-17.689.2-.5c.602-1.199 1.754-1.849 3.056-1.849.602 0 1.102.1 1.553.4.802.4 1.353 1.199 1.654 1.949.3.899.2 1.749-.301 2.648l-.401.7-12.324 23.285-1.001-3.048z" fill="#DF947B"/><path d="M259.488 135.965c.3 0 .601.099.901.199 1.002.5 1.253 1.649.802 2.649l-.401.699-10.771 20.337c-.601-1.748-1.202-3.447-1.653-5.296l9.118-17.239.2-.5c.401-.45 1.102-.849 1.804-.849zm0-2.899c-1.854 0-3.557 1-4.309 2.649l-.2.499-9.118 17.14-.601 1.099.301 1.199c.501 1.849 1.102 3.698 1.653 5.397l2.254 6.346 3.156-5.947 10.771-20.337.401-.699c.601-1.2.801-2.549.401-3.698a4.764 4.764 0 00-2.455-2.848c-.701-.65-1.503-.8-2.254-.8z" fill="#fff"/><path d="M286.94 96.939c-.701 0-1.252-.2-1.853-.5-1.553-.999-2.054-3.148-1.102-4.697l28.655-45.421.601-.1c1.753-.4 3.457-.7 5.31-.9l3.156-.4-31.811 50.519c-.701.8-1.753 1.499-2.956 1.499z" fill="#DF947B"/><path d="M318.752 46.62l-29.507 46.871-.702 1c-.4.6-1.002.899-1.653.899-.401 0-.701-.1-1.102-.3-.902-.6-1.202-1.749-.601-2.748l.501-.8 27.753-44.022c1.854-.3 3.507-.6 5.311-.9zm5.861-3.697l-6.262.9c-1.854.3-3.607.6-5.411.899l-1.252.25-.701 1.099-27.754 44.022-.501.8c-1.352 2.248-.701 5.296 1.553 6.746.802.5 1.653.8 2.655.8 1.654 0 3.257-.9 4.108-2.35l.702-.999 29.506-46.87 3.357-5.297z" fill="#fff"/><path d="M277.622 204.871c-.701-1.099-1.452-2.149-2.154-3.248l-1.002-1.349 19.037-9.294 52.801-25.934v-34.228l67.781-26.234.501 1.449c.401 1.349.801 2.649 1.102 3.798l.3 1.249-62.82 24.335v33.879l-50.698 24.934-6.863 3.448-17.283 8.494-.702-1.299z" fill="#DF947B"/><path d="M413.133 106.333c.401 1.249.801 2.549 1.102 3.798l-62.52 24.185v33.978l-49.946 24.585-6.864 3.448-16.08 7.945c-.702-1.1-1.453-2.149-2.155-3.348l10.621-5.197 6.863-3.448 53.553-26.333v-34.129l65.426-25.484zm1.853-3.847l-2.955 1.199-65.326 25.134-1.853.7V163.947l-52 25.534-6.864 3.348-10.62 5.196-3.056 1.45 1.954 2.848c.701 1.099 1.453 2.148 2.154 3.248l1.353 2.148 2.354-1.199 16.081-7.945 6.863-3.448 49.946-24.584 1.653-.8v-33.729l60.617-23.385 2.455-.999-.601-2.549c-.301-1.249-.702-2.548-1.103-3.897l-1.052-2.698z" fill="#fff"/><path d="M330.975 2.498v19.888M264.848 20.187l10.019 17.14M216.505 68.457l17.283 9.894M445.495 68.457l-17.283 9.894M397.102 20.187l-9.969 17.14" stroke="#5115AA" stroke-width="10" stroke-miterlimit="10" stroke-linecap="round"/></g><g clip-path="url(#clip1)"><path d="M143.533 416c79.272 0 143.534-11.077 143.534-24.742 0-13.665-64.262-24.742-143.534-24.742C64.263 366.516 0 377.593 0 391.258 0 404.923 64.262 416 143.533 416z" fill="#2B2638"/><path d="M266.857 169.311C266.857 101.22 211.632 46 143.533 46c-68.098 0-123.39 55.22-123.39 123.311 0 21.875 5.736 42.415 15.673 60.222l76.569 151.855c12.873 25.542 49.357 25.542 62.229 0l76.569-151.855c9.938-17.74 15.674-38.281 15.674-60.222zm-123.324 36.347c-19.942 0-36.083-16.14-36.083-36.08 0-19.941 16.141-36.08 36.083-36.08 19.943 0 36.084 16.139 36.084 36.08 0 19.94-16.208 36.08-36.084 36.08z" fill="#5115AA"/><path d="M145.882 183.989c7.963-1.292 13.37-8.794 12.078-16.757-1.292-7.962-8.795-13.369-16.758-12.077-7.963 1.292-13.371 8.795-12.079 16.757 1.293 7.962 8.796 13.369 16.759 12.077z" fill="#2B2638"/></g><defs><clipPath id="clip0"><path fill="#fff" transform="translate(214)" d="M0 0h234v318H0z"/></clipPath><clipPath id="clip1"><path fill="#fff" transform="translate(0 46)" d="M0 0h287v370H0z"/></clipPath></defs></svg>