<svg id="Layer_2" data-name="Layer 2" xmlns="http://www.w3.org/2000/svg" viewBox="0 0 100.79 77.33"><defs><style>.cls-5{fill:#fff}</style></defs><path d="M91.94 54.32a6.71 6.71 0 111.4-9.38 6.69 6.69 0 01-1.4 9.38z" fill="#ee5a40"/><path d="M88.75 35.4a18.23 18.23 0 01-19-30.11 18.22 18.22 0 0119.74-3.92 18.23 18.23 0 016 4l-7.33 7.25a7.89 7.89 0 102.31 5.62h10.3a18.25 18.25 0 01-11.44 16.93z" fill="#56deaa"/><path d="M63.62 76.23A18.41 18.41 0 0148 74.77a18.48 18.48 0 01-8.59-20l10.39 2.41a7.75 7.75 0 006.41 9.38A7.75 7.75 0 0065 60a7.61 7.61 0 00-1.44-5.74s-.06-.08-.08-.12c-1-1.29-2.4-2.33-7-3.46a18.27 18.27 0 01-13.65-16.27v-.34a18.42 18.42 0 019.43-17.16l5.2 9.34a7.58 7.58 0 00-3 3 7.66 7.66 0 00-1 4.23.76.76 0 000 .15 8.16 8.16 0 006 7.25c3.41.94 5.33 1.2 7.79 2.54A13.2 13.2 0 0172 47.67l.21.27a18.44 18.44 0 01-8.54 28.29z" fill="#0c0343"/><path d="M32.16 26.82a17.84 17.84 0 00-20.36-6.18 18.23 18.23 0 00-4.57 2.46 17.82 17.82 0 1021.21 28.65 17.81 17.81 0 003.72-24.93z" fill="#f8c100"/><path class="cls-5" d="M87.5 50.61v1h-4.11v-.81l2.09-2c.49-.45.57-.73.57-1s-.29-.67-.87-.67a1.35 1.35 0 00-1.13.54l-.91-.59a2.53 2.53 0 012.16-1c1.21 0 2 .62 2 1.61a2.15 2.15 0 01-.91 1.71l-1.25 1.19zM88 48.91c0-1.79 1-2.81 2.33-2.81s2.33 1 2.33 2.81-1 2.81-2.33 2.81S88 50.71 88 48.91zm3.4 0c0-1.23-.44-1.75-1.07-1.75s-1 .52-1 1.75.43 1.75 1 1.75 1.07-.51 1.07-1.75z"/></svg>